<svg xmlns="http://www.w3.org/2000/svg" viewBox="0 0 1038.98 1000"><defs><style>.cls-1{fill:#0a2255;}.cls-2{fill:#2f2f68;}.cls-3{fill:#00c3de;}.cls-4{fill:#ffc5c0;}.cls-5{fill:#ff9198;}.cls-6{fill:#29293f;}.cls-7{fill:#0eb9c6;}.cls-8{fill:#3c3f49;}.cls-9{fill:#687acf;}.cls-10{fill:#1e1e3c;}.cls-11{fill:#ff6662;}.cls-12{fill:#bbd6ff;}.cls-13{fill:#9ac0ef;}.cls-14{fill:#f25353;}</style></defs><g id="Layer_2" data-name="Layer 2"><g id="Layer_1-2" data-name="Layer 1"><polygon class="cls-1" points="256.22 942.43 341.77 997.79 183.52 1000 182.67 938.93 256.22 942.43"/><polygon class="cls-2" points="272.9 943.88 153.49 942.74 113.8 435.93 235.74 435.93 272.9 943.88"/><path class="cls-3" d="M248.54,428.51A43.65,43.65,0,0,1,206,387L172.9,193.25s29.71-42.07,100.56,5.84l16.35,153.62"/><circle class="cls-3" cx="223.27" cy="197.8" r="50.57"/><path class="cls-4" d="M347.94,175.33,315.68,220.8l52.21,22,24-38.19A26.4,26.4,0,0,0,379.09,166h0A26.42,26.42,0,0,0,347.94,175.33Z"/><path class="cls-4" d="M347.76,167.44h0a8.24,8.24,0,0,0-11,3.83l-14.57,30.8s-7.73,13-6,15.72l16.76-15.49,7,.16,11.61-24A8.26,8.26,0,0,0,347.76,167.44Z"/><polygon class="cls-5" points="318.94 207.28 375.04 231.45 367.89 242.84 315.68 220.8 318.94 207.28"/><path class="cls-3" d="M251.7,321.07l57.36-107.44,69.75,30.29-87,161.28a43.65,43.65,0,0,1-56.08,19.66"/><path class="cls-6" d="M182.67,458.82,202.55,682.6a23.37,23.37,0,0,1-.87,8.76L148,872.14,137.13,458.82Z"/><path class="cls-2" d="M121.35,943.88,9.6,903.89,72.91,679.48l-4-243.55H178.22l9,234.08a102.83,102.83,0,0,1-2.91,28.56Z"/><path class="cls-2" d="M68.9,435.93S46,493.08,70.78,550.23L101,487.08Z"/><polygon class="cls-1" points="101.04 936.61 99.84 967.3 130.95 1000 79.99 999.29 0 970.64 23.98 909.04 101.04 936.61"/><path class="cls-7" d="M235.76,207.28l12.78,221.23s-20.19-.37-25.2-3.37l3.4-215.66Z"/><path class="cls-3" d="M235.76,170.68V435.93H68.9V170.68a23.46,23.46,0,0,1,23.46-23.46h120A23.45,23.45,0,0,1,235.76,170.68Z"/><path class="cls-8" d="M457,174.2l8.4-4.58a7.18,7.18,0,0,1,6.09-.39l15.9,6.23a7.2,7.2,0,0,1,4.58,6.65L492,189Z"/><polygon class="cls-9" points="443.59 167.71 502.36 191.81 440.69 267.84 383.65 243.09 443.59 167.71"/><path class="cls-7" d="M68.9,271.77,139.16,391.1a46.91,46.91,0,0,0,61,18.35l121.34-59.31,14.91-27.64,16-90-18.25-7.4-43.66,23.32L283,263.2l-9.13,4.64-67.56,27.38L148,197.8,68.9,255.42Z"/><path class="cls-4" d="M412.13,214.91l-50.45,23.73,34.64,44.87L436,262a26.41,26.41,0,0,0,7.88-39.92h0A26.41,26.41,0,0,0,412.13,214.91Z"/><path class="cls-4" d="M409.73,202h0a8.26,8.26,0,0,0-11.67-.1L374,226s-11.63,9.61-10.91,12.8l21-9,6.58,2.51,19-18.69A8.25,8.25,0,0,0,409.73,202Z"/><polygon class="cls-5" points="371.17 228.47 408.14 277.1 396.32 283.51 361.69 238.65 371.17 228.47"/><path class="cls-3" d="M400.67,289.52,200,392.55a43.67,43.67,0,0,1-57.21-16.1L46,217.89s6-51.15,91.1-43L200,306.25l161-81.58Z"/><circle class="cls-3" cx="92.41" cy="197.8" r="50.57"/><path class="cls-4" d="M126.12,79.06l-11.49,68.17s16.9,17,34.92,15.65S182,147.56,182,147.56l-11.72-82S134.68,52.47,126.12,79.06Z"/><path class="cls-5" d="M179.55,130.43a35.62,35.62,0,0,1-28.64-12.84s17.59-25.13,25-12.47Z"/><path class="cls-4" d="M199.67,39.57s7.16,81.67-27.38,80.22c0,0-42.25-1.71-44.87-41l16-46.49S169.77,10.09,199.67,39.57Z"/><path class="cls-5" d="M200.28,57.64s-19.26-.11-28-6.83l27.37-3.25S200.53,50.72,200.28,57.64Z"/><path class="cls-10" d="M162.07,59.55l4.51-10.64s50.17,19.63,54-16.82c0,0,4.7-28.13-23-27.22,0,0-14,4-15.35,7.93,0,0-23.1-13.14-27.85,12,0,0-28-11.85-30,60.1,0,0,15.48-1.51,32.1-20.22C158.25,62.83,160.49,61.52,162.07,59.55Z"/><circle class="cls-4" cx="151.78" cy="65.38" r="11.88"/><polygon class="cls-1" points="782.76 942.43 697.21 997.79 855.46 1000 856.31 938.93 782.76 942.43"/><polygon class="cls-11" points="766.08 943.88 885.49 942.74 925.18 435.93 803.24 435.93 766.08 943.88"/><path class="cls-12" d="M795.85,428.51A43.66,43.66,0,0,0,838.39,387l33.1-193.77s-29.71-42.07-100.55,5.84L754.59,352.71"/><circle class="cls-12" cx="821.12" cy="197.8" r="50.57"/><path class="cls-4" d="M711.52,191.46,747,247.83,695,270.08l-24.7-56.68S686.16,186.89,711.52,191.46Z"/><polygon class="cls-4" points="712.64 174.17 725.53 213.74 680.75 237.34 680.75 190.93 712.64 174.17"/><path class="cls-4" d="M664.44,161.87l37.59.62a10.82,10.82,0,0,1,10.61,11.68l-3.07,38.63-39.25.6a26.42,26.42,0,0,1-30.62-26.79h0a26.41,26.41,0,0,1,14.38-22.81A19.39,19.39,0,0,1,664.44,161.87Z"/><path class="cls-5" d="M711.94,180.73,685.21,197.8l-10-11.44,34.06-6.07S712.69,171.4,711.94,180.73Z"/><path class="cls-5" d="M702,162.49s-11.17,9.21-26.85,23.87l8,6.17L705.07,163Z"/><path class="cls-4" d="M707.59,173.44l1.65,6.85-21,16.46a8.24,8.24,0,0,1-11.58-1.4h0a8.25,8.25,0,0,1,1.39-11.59l27-20.79"/><polygon class="cls-5" points="723.24 206.71 678.64 232 680.75 237.34 727.64 216.97 723.24 206.71"/><path class="cls-12" d="M792.69,321.07,735.34,213.63l-69.75,30.29,87,161.28a43.65,43.65,0,0,0,56.08,19.66"/><polygon class="cls-13" points="765.69 248.37 788.86 335.22 763.31 266.03 765.69 248.37"/><path class="cls-14" d="M856.31,458.82,836.43,682.6a23.37,23.37,0,0,0,.88,8.76L891,872.14l10.83-413.32Z"/><path class="cls-11" d="M917.64,943.88l111.74-40L966.07,679.48l4-243.55H860.76l-9,234.08a102.46,102.46,0,0,0,2.92,28.56Z"/><path class="cls-11" d="M970.08,435.93s22.9,57.15-1.88,114.3l-30.26-63.15Z"/><polygon class="cls-1" points="937.94 936.61 939.14 967.3 908.03 1000 958.99 999.29 1038.98 970.64 1015.01 909.04 937.94 936.61"/><path class="cls-13" d="M818.07,166.52a125.51,125.51,0,0,1-14.85,26L787.17,353.21h30.3Z"/><path class="cls-12" d="M803.22,170.68V435.93H970.08V170.68a23.46,23.46,0,0,0-23.46-23.46H826.68A23.46,23.46,0,0,0,803.22,170.68Z"/><polygon class="cls-13" points="896.68 203.38 901.85 337.02 728.95 361.43 750.29 406.61 815.71 435.93 970.08 435.93 958.83 197.8 896.68 203.38"/><path class="cls-4" d="M700.24,392,717,385.83l-23.78-24.4a8.25,8.25,0,0,0-11.67-.05h0a8.25,8.25,0,0,0,0,11.67Z"/><polygon class="cls-10" points="639.76 326.17 631.51 334.64 712.12 419.75 720.7 411.22 639.76 326.17"/><path class="cls-4" d="M740.47,434.67l4.42-56.77-64.86,8-22.75-24,3.93,46.68a26.19,26.19,0,0,0,25.32,24Z"/><polygon class="cls-5" points="730.98 379.61 725.96 432.39 740.47 434.67 744.89 377.9 730.98 379.61"/><path class="cls-12" d="M740.08,444.37l224.23-24.8a43.66,43.66,0,0,0,38.83-45L996.37,189s-33.2-39.37-99.69,14.43l20,144.2L737.43,368.37Z"/><circle class="cls-12" cx="946.57" cy="197.8" r="50.57"/><path class="cls-4" d="M912.86,79.06l11.49,68.17s-16.9,17-34.92,15.65S857,147.56,857,147.56l11.72-82S904.3,52.47,912.86,79.06Z"/><path class="cls-5" d="M859.43,130.43a35.62,35.62,0,0,0,28.64-12.84s-17.58-25.13-25-12.47Z"/><path class="cls-4" d="M855.62,34.39S826.31,111,859.92,119c0,0,41.08,10,54.39-27.06l-2.65-49.1S892.47,14.25,855.62,34.39Z"/><path class="cls-5" d="M850.07,51.59s18.56,5.19,28.77,1.12L853.41,42.07S851.73,44.87,850.07,51.59Z"/><path class="cls-10" d="M886.29,63.93l-1.41-11.47s-53.64,5.09-47.34-31c0,0,3.21-28.34,29.57-19.87,0,0,12.33,7.72,12.58,11.84,0,0,25.82-6.28,23.47,19.23,0,0,30.17-3.71,12.31,66,0,0-14.47-5.7-25.32-28.25C889.06,68.13,887.27,66.26,886.29,63.93Z"/><circle class="cls-4" cx="894.58" cy="72.37" r="11.88"/></g></g></svg>